<svg width="25" height="24" viewBox="0 0 25 24" fill="none" xmlns="http://www.w3.org/2000/svg">
<path fill-rule="evenodd" clip-rule="evenodd" d="M9.7526 3H4.75003C4.33582 3 4.00003 3.33579 4.00003 3.75C4.00003 4.16421 4.33582 4.5 4.75003 4.5H7.99294C3.90999 6.95172 2.53162 12.2342 4.92227 16.375C7.33852 20.56 12.6899 21.9939 16.875 19.5777C21.0601 17.1614 22.494 11.81 20.0777 7.62496C18.8708 5.53459 16.9302 4.13005 14.7708 3.54976C14.3708 3.44226 13.9594 3.6794 13.8519 4.07942C13.7444 4.47945 13.9815 4.89087 14.3815 4.99837C16.1728 5.47973 17.7785 6.64261 18.7787 8.37496C20.7807 11.8426 19.5926 16.2766 16.125 18.2786C12.6574 20.2807 8.22334 19.0926 6.22131 15.625C4.21928 12.1573 5.40737 7.72331 8.875 5.72128C8.92157 5.69439 8.96418 5.66325 9.0026 5.62865L9.00259 8.75C9.00259 9.16421 9.33838 9.5 9.75259 9.5C10.1668 9.5 10.5026 9.16421 10.5026 8.75L10.5026 3.75C10.5026 3.55109 10.4236 3.36032 10.2829 3.21967C10.1423 3.07902 9.95151 3 9.7526 3ZM9.0026 4.51481V4.5H8.98569C8.99139 4.50484 8.99703 4.50978 9.0026 4.51481Z" fill="white"/>
</svg>
